#!OML:ASF F:\VICON\USERDATA\INSTALL\rory3\rory3.ASF
:FULLY-SPECIFIED
:DEGREES
38
root -0.6624901348705262 17.24850732870401 24.974788882350918 2.8452115653214953 -2.3154648740891752 -6.990915087468965
lfemur -33.381739901546354 7.068795731083086 -7.965264877850867
ltibia 112.92416225791098
lfoot 1.3322083003506573 -9.013648237505596
ltoes -10.451262513850551
rfemur -11.975404085756542 7.264602949388557 37.84795699215074
rtibia 44.07787453753568
rfoot -26.839830118138128 -17.02592761923997
rtoes -5.2789973931961764
lowerback 16.657885738755002 0.5731889429085623 5.796587046304058
upperback -0.041861993501465355 2.2349796875712755 3.9872358280916975
thorax -10.190029716481439 0.9792297976634967 0.18005764646168743
lowerneck -21.091849923754644 -3.588326031695125 -1.7898197995231695
upperneck 12.574334070417061 -4.568887647448959 1.840262048206846
head 7.326072492626005 -2.126024403450574 0.3633968614018179
lclavicle -1.0216208151689567e-15 1.1861948893763837e-15
lhumerus -53.45861402745764 -13.627525438877658 99.92714342832468
lradius 102.38795714959251
lwrist 39.640995796188186
lhand -32.47298409352817 0.3226259864674489
lfingers nan
lthumb -5.59983785988288 30.24628449664859
rclavicle -9.729505946705923e-16 1.220016401004554e-15
rhumerus -47.703636409504945 9.594847223710868 -95.72914845963635
rradius 119.30594388618559
rwrist -16.45191737243081
rhand -19.124038137802124 33.72675539126278
rfingers nan
rthumb 7.520944368494593 5.932515914660269
39
root -0.7054397592813352 17.29809998105606 25.27139173835794 2.893402777538375 -0.20153377584423382 -6.1975150777177905
lfemur -38.3203776762837 6.023675215642853 -10.897813993649025
ltibia 107.2676124701382
lfoot 0.2612465853991761 -6.653759038078874
ltoes -14.234096386143253
rfemur -5.301975517982662 5.403948372823306 36.6962274415789
rtibia 41.32729678721938
rfoot -24.048911606787982 -15.485844851691102
rtoes -8.377038564839696
lowerback 16.51788558818584 0.8395483484639603 5.69935617325879
upperback -0.25012690711526997 2.537108823948876 3.5844320988233207
thorax -10.014637368492979 1.1010990546077353 -0.24207444599738126
lowerneck -21.29417738504943 -3.9951204983490225 -1.6472032309893416
upperneck 12.29807667070002 -5.183446879850958 1.8025696242956437
head 7.307589657409293 -2.434993080466517 0.21768399436610852
lclavicle -1.0130304783655785e-15 1.188656839365407e-15
lhumerus -56.784378110793355 -12.838131847263762 100.26446272839414
lradius 103.6288007915124
lwrist 40.008204128762344
lhand -32.619575983748504 0.09339601444770819
lfingers nan
lthumb -5.863929393172858 29.941300753251024
rclavicle -9.651759000518185e-16 1.2229290363661062e-15
rhumerus -46.202383227980775 10.479610635573414 -95.47536506753802
rradius 120.50055653121079
rwrist -16.56322572134094
rhand -19.061682416091266 34.08043834616078
rfingers nan
rthumb 7.643210710582526 6.906574114345946
40
root -0.6922161902135192 17.413255217264265 25.01424940652363 2.675276659147515 2.0692274606779235 -5.124817937153509
lfemur -40.47401599314916 4.268134203195606 -13.902776366243287
ltibia 98.11705669127042
lfoot -0.16953023377884113 -4.750412549065089
ltoes -16.413052695377534
rfemur 0.5744223091476393 3.167616285997604 34.646967513759236
rtibia 38.043473641733534
rfoot -17.9837551991885 -12.442762046452122
rtoes -11.202377232258419
lowerback 15.942413676737917 1.0337933545893385 5.322943807217964
upperback -0.4842673977725041 2.713158810367402 3.094833235580639
thorax -9.561815393963604 1.1739210762044274 -0.656996088736596
lowerneck -21.059894051570616 -4.442977735636184 -1.614138129678499
upperneck 11.850022522207228 -5.846191213048399 1.8879814424997088
head 7.138762637426495 -2.7737253743408323 0.1404824532028821
lclavicle -1.0105685417691303e-15 1.1873763928556288e-15
lhumerus -59.361452172581295 -11.95851913783568 100.2498497957432
lradius 105.11849897244834
lwrist 40.62564726086125
lhand -32.46730889704606 0.09077917274417599
lfingers nan
lthumb -5.77418384546995 29.852264676133615
rclavicle -9.61405673111854e-16 1.2233178820013996e-15
rhumerus -45.17466345543623 11.23449911304285 -95.29151015669838
rradius 121.9720983187569
rwrist -16.473532738346695
rhand -18.961765030139002 34.27182616696127
rfingers nan
rthumb 7.610619505982413 6.6935380141949015
41
root -0.6325628591950673 17.618807407331293 25.60051111771651 2.6212239479240607 4.2812587507112525 -4.889639638128754
lfemur -41.33632314207657 2.0544057650000216 -15.766154703730653
ltibia 86.70968739204388
lfoot 1.3159589953963362 -3.6539615058708153
ltoes -18.292864077226117
rfemur 4.927753701791346 1.6698122389398837 33.48509598949929
rtibia 35.390063908081075
rfoot -8.946120275751797 -9.054341857885387
rtoes -10.036442628719936
lowerback 15.345484731922783 1.3101250904640578 5.761847030945676
upperback -0.8053629266782573 3.024599111957354 2.6979418747708914
thorax -9.210623962206435 1.2633691248045689 -1.3139014268737146
lowerneck -20.300128175683096 -4.895047123747339 -1.6327738215037548
upperneck 11.801108052163595 -6.482100931413006 1.9674545850525953
head 7.056813876257351 -3.0759651699615196 0.08996679025240262
lclavicle -1.0056955527734493e-15 1.1881206566878063e-15
lhumerus -61.17108718095051 -11.137615060534632 99.99667032285038
lradius 106.70105639110443
lwrist 41.40212034602553
lhand -32.18758778581436 -0.043944663387823435
lfingers nan
lthumb -5.4892849683101765 29.78174637100315
rclavicle -9.498508858638955e-16 1.2294004563629538e-15
rhumerus -44.41307066029012 11.988150030980417 -95.22585204691494
rradius 123.30218239613892
rwrist -16.30903236654799
rhand -19.041183374765893 33.95556899617119
rfingers nan
rthumb 7.65728181416673 6.483701797613141
42
root -0.58533971813908 17.822459379873006 26.958680122529465 2.7159705634336033 5.592842403066871 -4.559811256807425
lfemur -40.89229132895032 -0.01274698749286629 -17.33336378352001
ltibia 73.48440066248581
lfoot 4.3361062754058155 -5.220321775843195
ltoes -20.00670672950467
rfemur 6.766852418651716 1.191391965140117 32.29433825922233
rtibia 35.23190744167621
rfoot 2.5952197497007834 -6.3628849777473455
rtoes -5.652213642813111
lowerback 14.62149406407964 1.4200299337066102 5.899867021724319
upperback -1.1573886847805321 3.0868073954485906 2.236028626065761
thorax -8.926901054044736 1.276816912310734 -1.762494517814568
lowerneck -19.5330544067511 -5.258385430286326 -1.6925910086502736
upperneck 12.147555359050584 -7.041009328683444 2.099286357508101
head 7.129865323896382 -3.3313701312070227 0.07775971526428271
lclavicle -9.982840291168732e-16 1.1897381911406006e-15
lhumerus -61.974152473910145 -10.429597500401371 99.70081024664194
lradius 107.99353665920678
lwrist 41.32436380107901
lhand -31.972413672680037 -0.19793646230514317
lfingers nan
lthumb -5.2486829751599515 29.716802859393074
rclavicle -9.387979827085491e-16 1.2344940143830738e-15
rhumerus -43.9020356442159 12.743587501209888 -95.28753973963956
rradius 124.36213060099205
rwrist -16.098774329947883
rhand -19.048268509970832 33.861724998827306
rfingers nan
rthumb 7.676224519990736 5.951042653222122
43
root -0.5481388886289453 17.99272793963394 27.865013603773672 2.574585590308767 6.145960312149299 -3.671397193605577
lfemur -38.65384578632612 -1.3380702288572794 -19.143441626197312
ltibia 59.157624512194445
lfoot 4.5977529276524995 -8.77335304273471
ltoes -18.771132338024803
rfemur 6.767710504360753 1.1696557295915642 30.649326848567597
rtibia 38.14699438898025
rfoot 13.959995155313736 -5.444536093121072
rtoes 1.2061102965914228
lowerback 13.926639118746172 1.4935719784445358 5.306845635637162
upperback -1.3876896749931769 2.921296674084873 1.5701585367615472
thorax -8.66470914574197 1.218601560261544 -1.8815331087588314
lowerneck -18.799220691435597 -5.517199855269846 -1.7601681724508262
upperneck 12.618123055548892 -7.465187047971274 2.2812500366404573
head 7.2630282898377 -3.513590420074846 0.10127236849707544
lclavicle -9.901299211993948e-16 1.1934066386996198e-15
lhumerus -61.93490751945721 -10.01568168682444 99.47671314691422
lradius 109.03682541420145
lwrist 40.17763271977607
lhand -31.862580633818865 -0.20574929824371851
lfingers nan
lthumb -5.092419384459568 29.835441631918464
rclavicle -9.31740539085918e-16 1.2379014241414018e-15
rhumerus -43.611577605980216 13.529424952656042 -95.51177016310515
rradius 125.1411879937477
rwrist -15.801669343129099
rhand -19.047146498296307 33.778736816697965
rfingers nan
rthumb 7.801460336527109 5.726901885236041
